<svg xmlns="http://www.w3.org/2000/svg" width="60" height="60" viewBox="0 0 60 60" fill="none"><path fill-rule="evenodd" clip-rule="evenodd" d="M30.7617 0.177485C30.3523 -0.058862 29.8479 -0.0591814 29.4381 0.176647L4.66444 14.4346C4.25351 14.6711 4.00023 15.1091 4.00023 15.5832V15.9417C3.99992 15.9582 3.99992 15.9747 4.00023 15.9912V44.0992C4.00023 44.5688 4.24873 45.0033 4.65347 45.2414L29.4272 59.817C29.8425 60.0613 30.3577 60.061 30.7727 59.8161L55.474 45.2405C55.8779 45.0022 56.1258 44.5681 56.1258 44.0992V15.5832C56.1258 15.1097 55.8731 14.6722 55.463 14.4355L30.7617 0.177485ZM6.65077 18.2419V43.3413L28.811 56.3792L28.811 30.7994L6.65077 18.2419ZM30.1819 28.4721C30.1667 28.4716 30.1515 28.4714 30.1363 28.4714C30.1177 28.4714 30.0993 28.4717 30.0809 28.4725L7.66126 15.768L30.0982 2.85491L52.1592 15.5889L30.1819 28.4721ZM31.4615 30.7944V56.3321L53.4752 43.3424V17.8898L31.4615 30.7944Z" fill="#E7107E"/></svg>