<svg width="782" height="190" viewBox="0 0 782 190" fill="none" xmlns="http://www.w3.org/2000/svg">
<g clip-path="url(#clip0_572_300)">
<path fill-rule="evenodd" clip-rule="evenodd" d="M22.3046 189.242H0L80.7942 0H103.099L22.3046 189.242ZM214.812 0H237.116V189.242H214.812V0ZM372.35 0H394.654V189.242H372.35V0ZM181.65 188.423H159.345L103.98 57.9582L114.714 31.0935L181.65 188.423ZM580.779 188.423H603.084L536.147 31.0935L525.414 57.9582L580.779 188.423ZM421.199 189.242H443.503L524.298 0H501.993L421.199 189.242ZM640.339 189.242H618.035L758.58 0H780.884L640.339 189.242ZM782 189.242H759.695L716.827 132.978L729.045 117.05L782 189.242ZM672.341 71.7888L683.71 57.0384L641.456 0H619.151L672.341 71.7888ZM261.641 0H281.368C314.407 0 341.186 26.9208 341.197 60.1231C341.197 93.3479 314.407 120.269 281.368 120.269H261.641V98.9339H282.841C303.461 98.16 319.997 81.054 319.997 60.1343C319.997 39.2146 303.461 22.1087 282.841 21.3347H261.641V0Z" fill="#223145"/>
</g>
<defs>
<clipPath id="clip0_572_300">
<rect width="782" height="189.242" fill="white"/>
</clipPath>
</defs>
</svg>
