<svg xmlns="http://www.w3.org/2000/svg" width="26" height="19" viewBox="0 0 26 19"><path d="M0 1.5C0 0.671387 0.671875 0 1.5 0H24.5C25.3281 0 26 0.671387 26 1.5C26 1.92773 25.8213 2.31348 25.5342 2.58691C25.2646 2.84277 24.9004 3 24.5 3H1.5C0.671875 3 0 2.32861 0 1.5Z" fill="currentColor"/><path d="M6 9.5C6 9.25342 6.05957 9.021 6.16504 8.81592C6.41406 8.33154 6.91797 8 7.5 8H24.5C25.3281 8 26 8.67139 26 9.5C26 9.87793 25.8604 10.2231 25.6299 10.4868C25.3545 10.8013 24.9502 11 24.5 11H7.5C6.67188 11 6 10.3286 6 9.5Z" fill="currentColor"/><path d="M1.5 16C0.671875 16 0 16.6714 0 17.5C0 18.3286 0.671875 19 1.5 19H24.5C24.8174 19 25.1123 18.9014 25.3545 18.7329C25.7451 18.4619 26 18.0107 26 17.5C26 16.6714 25.3281 16 24.5 16H1.5Z" fill="currentColor"/></svg>