<svg xmlns="http://www.w3.org/2000/svg" width="60" height="60" viewBox="0 0 60 60" fill="none"><path fill-rule="evenodd" clip-rule="evenodd" d="M30.7849 0.667554C30.5466 0.254501 30.106 1.09351e-05 29.6291 0C29.6289 0 29.6287 4.89693e-08 29.6285 1.63704e-07C29.6282 5.45722e-08 29.628 0 29.6278 0C29.1117 0 28.6641 0.29294 28.4422 0.721598L3.90145 43.2565C3.70213 43.602 3.67481 43.9995 3.79288 44.3499C3.89111 44.6414 4.08998 44.9003 4.37417 45.0696L28.9413 59.8099C29.3638 60.0634 29.8917 60.0634 30.3143 59.8099L54.8824 45.069C55.5014 44.6996 55.715 43.9044 55.3644 43.2747C55.3606 43.2679 55.3568 43.2612 55.3529 43.2544L30.7849 0.667554ZM50.5953 40.348L30.9621 6.31515V29.2225L50.5953 40.348ZM28.2935 6.3193L8.66061 40.3477L28.2935 29.2225V6.3193ZM7.70552 43.9563L28.2935 32.2898V56.309L7.70552 43.9563ZM30.9621 32.2898V56.309L51.55 43.9563L30.9621 32.2898Z" fill="#F6D200"/></svg>