<svg xmlns="http://www.w3.org/2000/svg" width="569" height="494" viewBox="0 0 569 494" fill="none"><g clip-path="url(#clip0_219_319)"><path opacity="0.1" fill-rule="evenodd" clip-rule="evenodd" d="M-94.7369 330.311C-95.3804 330.253 -95.9607 329.886 -96.2875 329.32L-284.732 3.00069C-285.089 2.38188 -285.089 1.61946 -284.732 1.0006C-284.375 0.38173 -283.715 0.000504818 -283 0.000504756L-94.5556 0.000488281C-93.8412 0.000488219 -93.181 0.381622 -92.8237 1.0003L0.733093 163.007L93.7123 2.00031C94.0696 1.38162 94.7299 1.00049 95.4443 1.00049L283.889 1.0005L283.922 1.00077C284 1.00206 284.077 1.00789 284.154 1.01809C284.764 1.09942 285.308 1.45892 285.621 2.00039L568.288 491.489C568.645 492.108 568.645 492.871 568.288 493.489C567.93 494.108 567.27 494.489 566.556 494.489L378.111 494.489C377.397 494.489 376.737 494.108 376.379 493.49L189.666 170.161L97.1762 330.32C96.8189 330.938 96.1587 331.319 95.4443 331.319H-93.0002C-93.7148 331.319 -94.375 330.938 -94.7323 330.319C-94.7338 330.317 -94.7354 330.314 -94.7369 330.311ZM-93.4891 326.167L-279.535 4.0005L-95.7102 4.00049L-1.57645 167.007L-93.4891 326.167ZM94.9553 326.167L187.356 166.161L95.4445 6.99953L3.04263 167.007L94.9553 326.167ZM0.733093 171.006L90.4244 326.319H-88.9582L0.733093 171.006ZM98.9091 5.00052L189.666 162.162L280.424 5.0005L98.9091 5.00052ZM283.889 6.99955L191.975 166.161L379.266 490.489L563.091 490.489L283.889 6.99955Z" fill="#524A82"></path></g><defs><clipPath id="clip0_219_319"><rect width="569" height="494" fill="white"></rect></clipPath></defs></svg>